<?xml version="1.0" encoding="utf-8"?>
<!-- Generator: Adobe Illustrator 26.0.2, SVG Export Plug-In . SVG Version: 6.00 Build 0)  -->
<svg version="1.1" id="Capa_1" xmlns="http://www.w3.org/2000/svg" xmlns:xlink="http://www.w3.org/1999/xlink" x="0px" y="0px"
	 viewBox="0 0 100 144.7" style="enable-background:new 0 0 100 144.7;" xml:space="preserve">
<style type="text/css">
	.st0{fill:#FDBF12;}
	.st1{clip-path:url(#SVGID_00000039841458956409522350000013237565354006361769_);}
	.st2{fill:#2D2B2C;}
	.st3{fill:#FFFFFF;}
	.st4{opacity:0.5;}
	.st5{fill:#A9A796;}
</style>
<g>
	<rect x="-0.1" y="-0.1" class="st0" width="100.5" height="144.8"/>
</g>
<g>
	<defs>
		<rect id="SVGID_1_" x="-0.1" y="-0.1" width="100.5" height="144.8"/>
	</defs>
	<clipPath id="SVGID_00000173864063954414244280000011767023817276101303_">
		<use xlink:href="#SVGID_1_"  style="overflow:visible;"/>
	</clipPath>
	<g style="clip-path:url(#SVGID_00000173864063954414244280000011767023817276101303_);">
		<g>
			<path class="st2" d="M79.3,92.2c0,0,5-4.7,4.3-5.8c-0.9-1.4-7,2.5-7,2.5L79.3,92.2z"/>
		</g>
		<g>
			<path class="st2" d="M65.4,78.4c0,0,2.6-6.3,1.5-7.1c-1.4-0.9-5.3,5.2-5.3,5.2L65.4,78.4z"/>
		</g>
		<g>
			<path class="st2" d="M23.5,93.1c0,0-5.2-4.5-4.5-5.6c0.9-1.4,7,2.2,7,2.2L23.5,93.1z"/>
		</g>
		<g>
			<path class="st2" d="M36.8,78.8c0,0-2.9-6.2-1.8-7c1.4-1,5.5,4.9,5.5,4.9L36.8,78.8z"/>
		</g>
		<g>
			<path class="st3" d="M80.9,92.9C77.8,82.3,68,86.7,68,86.7s2.4-10.2-5.3-11.7c-6.2-1.2-10.6,3.1-11.4,4.5
				c-0.8-1.3-6.2-5.8-12.3-3.6c-7.5,2.7-4.2,11.2-4.2,11.2s-9.9-4.1-12.6,6.6c-2.2,8.6,10.4,9.6,11,13.5c0.5,3.8-4.1,54.2-4.1,54.2
				l47.2-0.6c0,0-6.4-50.1-5.9-54C70.8,102.8,83.4,101.4,80.9,92.9z"/>
		</g>
		<g>
			<g>
				<path class="st2" d="M51.7,91.8c-7,0-13.4,5.3-9.7,9c3.7,3.7,5.8-1.1,9.9-1.1c3.8,0,5.9,3.8,9.2,1.6
					C64.4,99.1,59.6,91.8,51.7,91.8z"/>
			</g>
			<g>
				<path class="st2" d="M30.6,91.9c-1.9-1.2-3.6-0.9-4.3,0.4c-0.9,1.6,0.5,3.2,2.3,4.2c1.8,1,3.6,0.8,4.3-0.3
					C33.4,95,32.4,93,30.6,91.9z"/>
			</g>
			<g>
				<path class="st2" d="M44.7,86.1c1-0.8,1-3-0.3-4.8c-1.2-1.8-2.9-2.3-4.1-1.4c-1.5,1.1-0.9,3.1,0.4,4.7
					C42,86.3,43.7,86.8,44.7,86.1z"/>
			</g>
			<g>
				<path class="st2" d="M75.8,91.8c-0.9-1.3-2.6-1.3-4.3,0c-1.7,1.3-2.5,3.4-1.8,4.5c0.7,1.1,2.6,1.1,4.3-0.1
					C75.7,95.1,76.9,93.4,75.8,91.8z"/>
			</g>
			<g>
				<path class="st2" d="M61.1,79.6c-1.3-0.8-2.9-0.2-4,1.8c-1,1.9-0.9,4.1,0.2,4.8c1.1,0.7,2.8-0.1,3.9-1.8
					C62.3,82.6,62.8,80.5,61.1,79.6z"/>
			</g>
		</g>
		<g class="st4">
			<g>
				<path class="st5" d="M47,94.1c-3.3,1.4-4.6,3.8-3.5,4.9c1.1,1.1,2.8-2.2,4.9-2.7c2-0.5,5.2-0.7,5.5-1.6
					C54.2,93,50.6,92.5,47,94.1z"/>
			</g>
			<g>
				<path class="st5" d="M26.8,93.2c-0.6,0.7,0.3,1.5,0.9,2.1c0.5,0.5,1.3,1,1.8,0.6c0.5-0.4-0.3-1.2-0.7-1.7
					C28.4,93.6,27.2,92.6,26.8,93.2z"/>
			</g>
			<g>
				<path class="st5" d="M40.8,80.5c-0.8,0.3-0.5,1.5-0.2,2.3c0.2,0.6,0.7,1.5,1.3,1.4c0.6-0.2,0.3-1.2,0.2-1.8
					C42,81.7,41.5,80.3,40.8,80.5z"/>
			</g>
			<g>
				<path class="st5" d="M60.3,80.1c-0.7-0.5-1.5,0.4-2,1.1c-0.4,0.5-0.9,1.4-0.5,1.8c0.5,0.4,1.1-0.4,1.7-0.8
					C59.9,81.7,60.8,80.5,60.3,80.1z"/>
			</g>
			<g>
				<path class="st5" d="M74.9,91.9c-0.5-0.7-1.6-0.1-2.2,0.4c-0.6,0.4-1.3,1-1,1.6c0.3,0.6,1.2,0,1.8-0.3
					C74.1,93.4,75.3,92.5,74.9,91.9z"/>
			</g>
		</g>
		<g>
			<path class="st2" d="M55.1,134.6c-8.9,1.9-13.9-5.4-22.7-3.6c-0.3,0.1-0.5,0.1-0.8,0.2c-1.2,14.5-2.6,30.2-2.6,30.2l47.2-0.6
				c0,0-3.4-26.8-5.1-42.7C66.7,120.9,62.7,132.9,55.1,134.6z"/>
		</g>
	</g>
</g>
<g>
	<path class="st2" d="M45.8,22.9c-0.5,0.8-1.2,1.6-2,2.4s-1.8,1.5-2.9,2.1c-1.1,0.6-2.3,1.1-3.6,1.5c-1.3,0.4-2.6,0.6-4,0.6
		c-1.1,0-2.1-0.1-3.2-0.3c-1.1-0.2-2.1-0.5-3.1-0.9c-1-0.4-1.9-0.9-2.7-1.5c-0.8-0.6-1.6-1.3-2.2-2.1C21.4,24,20.9,23,20.5,22
		c-0.4-1-0.5-2.2-0.5-3.5c0-1.2,0.2-2.4,0.6-3.5c0.4-1.1,0.9-2.2,1.5-3.1s1.4-1.8,2.3-2.6c0.9-0.8,1.9-1.4,3-2s2.2-1,3.4-1.2
		c1.2-0.3,2.4-0.4,3.7-0.4c1.4,0,2.7,0.2,3.9,0.5c1.2,0.3,2.3,0.8,3.2,1.4s1.6,1.3,2.1,2.1c0.5,0.8,0.8,1.7,0.8,2.8
		c0,0.9-0.2,1.8-0.7,2.7s-1,1.6-1.8,2.2s-1.6,1.1-2.7,1.5s-2.1,0.6-3.2,0.6c-0.9,0-1.7-0.1-2.5-0.3c-0.7-0.2-1.3-0.5-1.8-1
		c-0.5-0.4-0.8-0.9-1.1-1.4c-0.2-0.5-0.4-1.1-0.4-1.8c0-0.5,0.1-1,0.2-1.4s0.3-0.8,0.5-1.1c0.2-0.3,0.4-0.6,0.6-0.7
		c0.2-0.2,0.3-0.3,0.3-0.3c0.1-0.1,0.1-0.1,0.2-0.1s0.1,0,0.2,0c0.2,0,0.3,0.1,0.4,0.2s0.2,0.2,0.2,0.4c0,0.2-0.1,0.4-0.2,0.5
		c0,0-0.1,0.1-0.2,0.2c-0.1,0.1-0.3,0.3-0.4,0.5c-0.1,0.2-0.3,0.5-0.4,0.8c-0.1,0.3-0.2,0.7-0.2,1.1c0,0.6,0.1,1.1,0.4,1.5
		s0.6,0.8,1.1,1s0.9,0.4,1.5,0.6s1.1,0.2,1.6,0.2c1,0,1.9-0.2,2.8-0.5s1.6-0.7,2.3-1.3c0.6-0.5,1.2-1.1,1.5-1.8
		c0.4-0.7,0.6-1.4,0.6-2.2c0-0.8-0.2-1.6-0.7-2.3c-0.5-0.7-1.1-1.3-1.9-1.8c-0.8-0.5-1.7-0.9-2.8-1.1c-1.1-0.3-2.2-0.4-3.4-0.4
		c-0.9,0-1.9,0.1-2.9,0.3s-2,0.5-3,1c-1,0.4-1.9,1-2.8,1.6c-0.9,0.6-1.7,1.4-2.3,2.3c-0.7,0.9-1.2,1.8-1.6,2.9s-0.6,2.3-0.6,3.5
		c0,1.2,0.2,2.2,0.5,3.1s0.8,1.8,1.3,2.5c0.6,0.7,1.2,1.4,2,1.9s1.6,1,2.5,1.3c0.9,0.3,1.8,0.6,2.8,0.8c1,0.2,1.9,0.2,2.9,0.2
		c1.3,0,2.5-0.2,3.7-0.5c1.2-0.4,2.3-0.8,3.3-1.4c1-0.6,1.9-1.2,2.7-2c0.8-0.7,1.4-1.5,1.9-2.2c0.1-0.1,0.1-0.2,0.2-0.2
		c0.1,0,0.2-0.1,0.3-0.1c0.2,0,0.3,0.1,0.4,0.2c0.1,0.1,0.2,0.3,0.2,0.4c0,0.1,0,0.1,0,0.2C45.8,22.8,45.8,22.9,45.8,22.9z"/>
	<path class="st2" d="M59.7,24.4c0,0.1-0.1,0.3-0.3,0.5c-0.1,0.3-0.3,0.6-0.5,0.9c-0.2,0.4-0.5,0.7-0.7,1.1
		c-0.3,0.4-0.6,0.7-0.9,1.1c-0.3,0.3-0.7,0.6-1.1,0.8s-0.8,0.3-1.2,0.3c-0.6,0-1.1-0.2-1.6-0.6c-0.4-0.4-0.7-0.9-0.9-1.5
		c-0.4,0.6-0.8,1.1-1.3,1.4c-0.5,0.4-1,0.5-1.5,0.5c-0.4,0-0.8-0.1-1.1-0.2c-0.3-0.1-0.6-0.3-0.8-0.6s-0.4-0.6-0.5-0.9
		c-0.1-0.4-0.2-0.7-0.2-1.1c0-0.8,0.1-1.6,0.4-2.2c0.3-0.6,0.6-1.2,1.1-1.6s0.9-0.7,1.4-1c0.5-0.2,1-0.3,1.5-0.3
		c0.3,0,0.6,0,0.9,0.1c0.3,0.1,0.5,0.2,0.7,0.3s0.3,0.2,0.5,0.3s0.2,0.1,0.2,0.2c0.1,0.1,0.2,0.3,0.2,0.4c0,0.2-0.1,0.3-0.2,0.4
		c-0.1,0.1-0.3,0.2-0.4,0.2c-0.2,0-0.3-0.1-0.4-0.2c0,0-0.1-0.1-0.1-0.1s-0.2-0.1-0.3-0.2c-0.1-0.1-0.3-0.1-0.5-0.2
		c-0.2,0-0.4-0.1-0.6-0.1c-0.3,0-0.7,0.1-1.1,0.2c-0.4,0.1-0.7,0.4-1,0.7s-0.6,0.7-0.8,1.2s-0.3,1-0.3,1.7c0,0.2,0,0.4,0.1,0.6
		s0.1,0.4,0.2,0.6c0.1,0.2,0.2,0.3,0.4,0.4c0.2,0.1,0.4,0.2,0.7,0.2c0.2,0,0.4-0.1,0.7-0.2s0.5-0.3,0.7-0.6c0.2-0.3,0.4-0.6,0.6-1
		c0.2-0.4,0.3-0.9,0.4-1.4c0-0.1,0.1-0.3,0.2-0.4c0.1-0.1,0.3-0.2,0.4-0.2c0.1,0,0.3,0.1,0.4,0.2c0.1,0.1,0.2,0.2,0.2,0.4
		c0,0.2,0,0.5,0.1,0.9c0,0.4,0.1,0.7,0.2,1.1c0.1,0.4,0.3,0.7,0.5,0.9s0.5,0.4,0.9,0.4c0.3,0,0.5-0.1,0.8-0.2
		c0.2-0.1,0.5-0.3,0.7-0.6s0.5-0.5,0.7-0.8c0.2-0.3,0.4-0.6,0.6-0.9c0.2-0.3,0.3-0.6,0.5-0.9c0.1-0.3,0.3-0.5,0.4-0.7
		c0.1-0.1,0.1-0.2,0.2-0.3c0.1-0.1,0.2-0.1,0.3-0.1c0.2,0,0.3,0.1,0.4,0.2c0.1,0.1,0.2,0.3,0.2,0.4C59.8,24.2,59.8,24.3,59.7,24.4z"
		/>
	<path class="st2" d="M71.6,12.9c0,0.2-0.1,0.3-0.2,0.4c-0.1,0.1-0.3,0.2-0.4,0.2h-8.1v0.2c0,0.6,0,1.3-0.1,2.1
		c-0.1,0.7-0.2,1.5-0.4,2.2S62,19.3,61.8,20c-0.2,0.7-0.4,1.3-0.6,1.9c-0.2,0.6-0.4,1.1-0.6,1.5s-0.4,0.8-0.6,1
		c0.1,0.5,0.3,0.9,0.5,1.4c0.2,0.4,0.4,0.8,0.6,1.1c0.2,0.3,0.5,0.6,0.8,0.7c0.3,0.2,0.6,0.3,0.9,0.3c0.4,0,0.7-0.2,1.1-0.5
		s0.7-0.7,1-1.1c0.3-0.4,0.6-0.9,0.8-1.3c0.2-0.4,0.4-0.8,0.5-1.1c0.1-0.3,0.3-0.4,0.6-0.4c0.2,0,0.3,0.1,0.4,0.2
		c0.1,0.1,0.2,0.3,0.2,0.4c0,0.1,0,0.1,0,0.2c0,0.1-0.1,0.2-0.2,0.5c-0.1,0.3-0.3,0.6-0.5,0.9c-0.2,0.4-0.4,0.7-0.7,1.1
		c-0.3,0.4-0.6,0.7-0.9,1.1c-0.3,0.3-0.7,0.6-1,0.8c-0.4,0.2-0.8,0.3-1.2,0.3c-0.7,0-1.4-0.2-2-0.7c-0.6-0.5-1.1-1.1-1.5-2
		s-0.7-1.9-0.9-3.1s-0.3-2.5-0.3-3.9c0-0.4,0-0.8,0-1.2c0-0.5,0-1,0.1-1.5s0.1-1.1,0.1-1.6c0.1-0.6,0.1-1.1,0.3-1.6h-5.7
		c-0.2,0-0.3-0.1-0.4-0.2c-0.1-0.1-0.2-0.2-0.2-0.4c0-0.2,0.1-0.3,0.2-0.4s0.3-0.2,0.4-0.2h6c0.1-0.4,0.2-0.7,0.4-1.1
		c0.1-0.3,0.3-0.6,0.5-0.8c0.2-0.2,0.4-0.4,0.6-0.6c0.2-0.1,0.5-0.2,0.8-0.2c0.3,0,0.5,0.1,0.7,0.2c0.2,0.1,0.4,0.3,0.5,0.6
		c0.1,0.2,0.2,0.5,0.3,0.8c0.1,0.3,0.1,0.7,0.2,1.1H71c0.2,0,0.3,0.1,0.4,0.2S71.6,12.7,71.6,12.9z M59.5,22.8
		c0.3-0.7,0.6-1.5,0.9-2.3c0.3-0.8,0.5-1.6,0.7-2.5c0.2-0.8,0.3-1.6,0.4-2.4c0.1-0.8,0.2-1.5,0.2-2.2h-1.9c-0.1,0.7-0.3,1.5-0.4,2.5
		c-0.1,1-0.1,2.2-0.1,3.6c0,0.8,0,1.4,0.1,2C59.4,21.9,59.5,22.4,59.5,22.8z M61,10.9c-0.1,0-0.2,0.1-0.4,0.3
		c-0.2,0.2-0.4,0.6-0.5,1.1h1.5c-0.1-0.4-0.1-0.8-0.2-1.1C61.3,11,61.2,10.9,61,10.9z"/>
	<path class="st2" d="M68,22.9c-0.1,0.2-0.1,0.4-0.2,0.6c-0.1,0.2-0.2,0.4-0.3,0.7c-0.1,0.2-0.2,0.3-0.3,0.4
		c-0.1,0.1-0.2,0.2-0.4,0.2c-0.2,0-0.3-0.1-0.4-0.2s-0.2-0.2-0.2-0.4c0-0.1,0-0.1,0-0.1c0,0,0-0.1,0.1-0.2c0.3-0.5,0.5-1,0.6-1.4
		c0.1-0.4,0.2-0.8,0.3-1.3c-0.1-0.2-0.1-0.5-0.2-0.6c0-0.2,0-0.3,0-0.5c0-0.4,0.1-0.6,0.2-0.9c0.1-0.2,0.4-0.3,0.6-0.3
		c0.2,0,0.4,0.1,0.6,0.3c0.1,0.2,0.2,0.5,0.2,0.8c0,0.2,0,0.3,0,0.5c0,0.2-0.1,0.4-0.1,0.6c0.2,0.6,0.5,1.1,0.7,1.6
		c0.2,0.5,0.5,0.9,0.7,1.3c0.2,0.4,0.3,0.8,0.5,1.1c0.1,0.3,0.2,0.7,0.2,1c0,0.4-0.1,0.9-0.3,1.3c-0.2,0.4-0.5,0.7-0.9,1
		c0.1,0,0.1,0,0.2,0c0.1,0,0.1,0,0.2,0c0.6,0,1.2-0.1,1.7-0.4s1-0.6,1.4-1.1c0.4-0.4,0.8-0.9,1.1-1.5c0.3-0.5,0.6-1.1,0.8-1.6
		c0.1-0.2,0.3-0.4,0.4-0.4c0.2,0,0.3,0.1,0.4,0.2s0.2,0.3,0.2,0.4c0,0.1,0,0.2,0,0.2c-0.1,0.3-0.3,0.6-0.5,1s-0.4,0.7-0.7,1.1
		c-0.3,0.4-0.6,0.8-0.9,1.1c-0.3,0.4-0.7,0.7-1.1,1c-0.4,0.3-0.9,0.5-1.4,0.7s-1,0.3-1.6,0.3c-0.7,0-1.4-0.1-2-0.4S66.4,28.6,66,28
		c-0.1-0.1-0.1-0.2-0.1-0.3c0-0.2,0.1-0.3,0.2-0.4c0.1-0.1,0.3-0.2,0.4-0.2c0.2,0,0.3,0.1,0.4,0.2c0,0,0,0.1,0.1,0.1
		c0.1,0,0.1,0.1,0.2,0.2c0.1,0.1,0.2,0.1,0.3,0.2c0.1,0,0.2,0.1,0.4,0.1c0.3,0,0.5-0.1,0.6-0.2c0.2-0.1,0.3-0.2,0.4-0.4
		c0.1-0.2,0.2-0.3,0.2-0.5c0-0.2,0.1-0.3,0.1-0.5c0-0.3,0-0.5-0.1-0.8c-0.1-0.3-0.2-0.5-0.3-0.8s-0.3-0.5-0.4-0.8
		C68.3,23.5,68.2,23.2,68,22.9z"/>
</g>
<g>
	<path class="st2" d="M17,37.3L17,37.3c0.4,0,0.7,0.1,1,0.4c0.3,0.3,0.4,0.6,0.4,0.9c0,0.1,0,0.1,0,0.2c-0.2,2-0.4,5.8-0.7,11.6
		c-0.1,2.9-0.1,5,0,6.1c0.1,0.6,0.2,1,0.3,1.2v0c0.3,0,0.6,0.2,0.8,0.5s0.3,0.6,0.3,0.9c0,0.4-0.1,0.7-0.4,1c-0.3,0.3-0.6,0.4-1,0.4
		c0,0-0.1,0-0.1,0c-0.4,0-0.8-0.2-1.1-0.4c-0.4-0.3-0.6-0.5-0.9-0.9c-0.1-0.3-0.3-0.5-0.4-0.8c-0.5,0.6-1,1-1.6,1.3
		c-0.6,0.3-1.2,0.4-1.9,0.3c-0.7-0.1-1.3-0.4-1.8-0.8c-0.5-0.5-1-1.1-1.3-1.8c-0.6-1.5-0.6-3.3-0.2-5.5c0.4-1.8,1-3.2,1.9-4.3
		c0.9-1.1,1.9-1.6,3.1-1.7c0.1,0,0.2,0,0.2,0c0.5,0,1,0.2,1.4,0.5c0.2-3.8,0.4-6.4,0.5-7.8c0-0.3,0.2-0.6,0.4-0.9
		C16.4,37.4,16.7,37.3,17,37.3z M12.6,49.3c-0.6,0.7-1,1.8-1.3,3.1c-0.3,1.7-0.3,3,0,3.9c0.2,0.6,0.5,0.9,0.8,0.9
		c0.4,0,0.8-0.2,1.2-0.8c0.7-0.9,1.1-2.1,1.2-3.8c0.1-1.5,0-2.6-0.4-3.4c-0.2-0.4-0.4-0.6-0.6-0.7h0C13.3,48.6,13,48.8,12.6,49.3z"
		/>
	<path class="st2" d="M24.2,45.5c0.5,0,0.9,0.1,1.4,0.4c0.4,0.2,0.8,0.5,1.1,0.9c0.2,0.3,0.3,0.6,0.4,1c0.1,0.3,0.1,0.6,0.1,1
		c0,0.9-0.2,1.7-0.6,2.5c-0.4,0.8-0.9,1.5-1.7,2.1c-0.8,0.6-1.8,1.1-2.9,1.3c0.2,1.2,0.6,1.9,1.4,2.2c0.3,0.1,0.6,0.2,0.9,0.2
		s0.7-0.1,1.1-0.3c0.4-0.2,0.8-0.4,1.2-0.8c0.3-0.2,0.6-0.4,0.9-0.4c0.4,0,0.7,0.1,1,0.4c0.3,0.3,0.4,0.6,0.4,1c0,0.2,0,0.4-0.1,0.6
		c-0.1,0.2-0.2,0.4-0.3,0.5c-0.9,0.8-1.9,1.4-3,1.6c-1.1,0.2-2.1,0.2-3.1-0.3c-1-0.4-1.7-1.2-2.3-2.2c-0.5-1.1-0.8-2.3-0.8-3.7
		c0-1.5,0.2-2.8,0.6-3.9c0.4-1.2,1-2.1,1.7-2.8c0.8-0.8,1.7-1.2,2.6-1.2C24.1,45.5,24.1,45.5,24.2,45.5z M24.2,48.2L24.2,48.2
		c-0.3,0-0.6,0.1-0.9,0.4c-0.7,0.7-1.2,1.8-1.4,3.3c1-0.3,1.7-0.9,2.2-1.8c0.2-0.4,0.3-0.9,0.3-1.4c0-0.2,0-0.3,0-0.4
		C24.3,48.3,24.3,48.2,24.2,48.2z M24.4,48.3L24.4,48.3L24.4,48.3z"/>
	<path class="st2" d="M38.2,44.3c0.4,0,0.7,0.2,0.9,0.4s0.4,0.6,0.4,1c0,0.1,0,0.2,0,0.3c-0.5,2.2-1,4.1-1.5,5.7
		c-0.4,1.5-0.8,2.9-1.3,4c-0.5,1.3-1,2.3-1.5,3c-0.8,1-1.7,1.5-2.7,1.4c-0.5-0.1-1-0.3-1.5-0.7c-0.4-0.4-0.7-0.8-1-1.3
		c-0.3-0.8-0.5-1.8-0.7-3.1c-0.1-0.7-0.1-1.4-0.1-2.2c0-0.8,0-1.7-0.1-2.7c0-1,0-1.7,0-2.1c0,0,0,0,0-0.1c0-0.4,0.1-0.7,0.4-1
		s0.6-0.4,1-0.4c0.4,0,0.7,0.1,0.9,0.4c0.3,0.3,0.4,0.6,0.4,0.9c0,0.5,0,1.2,0,2.2c0,1,0,1.9,0.1,2.7c0,0.8,0.1,1.5,0.1,2
		c0.1,0.5,0.1,1,0.2,1.4c0.1,0.4,0.2,0.7,0.3,1c0.1,0.2,0.1,0.3,0.2,0.3c0.1-0.1,0.1-0.2,0.2-0.3c0.4-0.5,0.8-1.3,1.2-2.4
		c0.7-1.8,1.5-4.9,2.6-9.4c0.1-0.3,0.2-0.5,0.5-0.7C37.6,44.4,37.9,44.3,38.2,44.3L38.2,44.3z"/>
	<path class="st2" d="M44.1,45.5c0.5,0,0.9,0.1,1.4,0.4c0.4,0.2,0.8,0.5,1.1,0.9c0.2,0.3,0.3,0.6,0.4,1c0.1,0.3,0.1,0.6,0.1,1
		c0,0.9-0.2,1.7-0.6,2.5c-0.4,0.8-0.9,1.5-1.7,2.1c-0.8,0.6-1.8,1.1-2.9,1.3c0.2,1.2,0.6,1.9,1.4,2.2c0.3,0.1,0.6,0.2,0.9,0.2
		s0.7-0.1,1.1-0.3c0.4-0.2,0.8-0.4,1.2-0.8c0.3-0.2,0.6-0.4,0.9-0.4c0.4,0,0.7,0.1,1,0.4c0.3,0.3,0.4,0.6,0.4,1c0,0.2,0,0.4-0.1,0.6
		c-0.1,0.2-0.2,0.4-0.3,0.5c-0.9,0.8-1.9,1.4-3,1.6c-1.1,0.2-2.1,0.2-3.1-0.3c-1-0.4-1.7-1.2-2.3-2.2c-0.5-1.1-0.8-2.3-0.8-3.7
		c0-1.5,0.2-2.8,0.6-3.9c0.4-1.2,1-2.1,1.7-2.8c0.8-0.8,1.7-1.2,2.6-1.2C44,45.5,44.1,45.5,44.1,45.5z M44.1,48.2L44.1,48.2
		c-0.3,0-0.6,0.1-0.9,0.4c-0.7,0.7-1.2,1.8-1.4,3.3c1-0.3,1.7-0.9,2.2-1.8c0.2-0.4,0.3-0.9,0.3-1.4c0-0.2,0-0.3,0-0.4
		C44.3,48.3,44.2,48.2,44.1,48.2z M44.3,48.3L44.3,48.3L44.3,48.3z"/>
	<path class="st2" d="M51.2,38.5c0.4,0,0.7,0.2,0.9,0.4s0.4,0.6,0.4,0.9c0,0,0,0.1,0,0.1c-0.3,6.2-0.4,11.1-0.3,14.8
		c0,0.8,0.1,1.5,0.1,2.1c0.1,0.6,0.1,1,0.1,1.1l0.1,0.3c0,0.1,0,0.2,0,0.3c0,0.4-0.1,0.7-0.4,1s-0.6,0.4-1,0.4
		c-0.3,0-0.6-0.1-0.8-0.3s-0.4-0.5-0.5-0.7c-0.2-0.8-0.3-2.1-0.4-4c-0.2-3.8-0.1-8.8,0.3-15.1c0-0.4,0.2-0.7,0.4-0.9
		C50.5,38.7,50.8,38.5,51.2,38.5C51.2,38.5,51.2,38.5,51.2,38.5z"/>
	<path class="st2" d="M58.6,46.1c0.6,0,1.2,0.2,1.7,0.6c0.5,0.4,1,0.8,1.3,1.4c0.7,1.2,1,2.7,0.9,4.6c0,2.1-0.5,3.9-1.4,5.2
		c-0.4,0.6-1,1.1-1.6,1.5c-0.6,0.4-1.3,0.5-1.9,0.5s-1.3-0.3-1.9-0.7c-0.6-0.4-1.1-1-1.4-1.7c-0.7-1.4-0.9-3.2-0.6-5.3
		c0.3-1.8,0.8-3.2,1.6-4.3C56.4,46.7,57.4,46.1,58.6,46.1z M58.6,48.9c-0.3,0-0.7,0.2-1,0.7c-0.6,0.7-0.9,1.7-1.1,3.1
		c-0.2,1.6-0.1,2.9,0.3,3.8c0.2,0.3,0.3,0.5,0.5,0.6c0.2,0.1,0.3,0.2,0.5,0.2c0.4,0,0.8-0.3,1.2-0.8c0.6-0.9,0.9-2.1,0.9-3.7
		c0-1.4-0.2-2.5-0.6-3.2C59.1,49.1,58.9,48.9,58.6,48.9z"/>
	<path class="st2" d="M65.8,43.8c0.4,0,0.7,0.2,0.9,0.4c0.3,0.3,0.4,0.6,0.4,0.9c0,0,0,0.1,0,0.1c0,0.4,0,0.8-0.1,1.3
		c0.7-0.6,1.4-0.9,2.2-0.9c0.1,0,0.2,0,0.3,0c0.6,0,1.2,0.2,1.7,0.5c0.5,0.3,1,0.8,1.3,1.4c0.7,1.2,1.1,2.9,1,4.9
		c-0.1,2.2-0.5,4.1-1.4,5.5c-0.4,0.7-1,1.2-1.6,1.6c-0.6,0.4-1.3,0.6-1.9,0.6c-0.7,0-1.4-0.2-2-0.7c0,1.5,0.1,3,0.1,4.5
		c0,0,0,0.1,0,0.1c0,0.4-0.1,0.7-0.4,1c-0.3,0.3-0.6,0.4-1,0.4c-0.4,0-0.7-0.1-1-0.4c-0.3-0.3-0.4-0.6-0.4-0.9
		C64,61.3,64,58.6,64,56.1c0-2.6,0.2-6.2,0.4-11c0-0.4,0.2-0.7,0.4-0.9S65.4,43.8,65.8,43.8C65.8,43.8,65.8,43.8,65.8,43.8z
		 M69.5,48.3C69.5,48.3,69.5,48.3,69.5,48.3c-0.4,0-0.8,0.3-1.2,0.9c-0.6,0.8-0.9,1.9-1.1,3.3c-0.2,1.8,0,3.2,0.5,4.1
		c0.3,0.6,0.6,0.9,0.9,0.9c0.4,0,0.8-0.3,1.2-1c0.6-1,1-2.4,1-4.1c0-1.5-0.2-2.7-0.6-3.4C70,48.6,69.8,48.3,69.5,48.3
		C69.6,48.3,69.5,48.3,69.5,48.3z"/>
	<path class="st2" d="M79.6,45.5c0.5,0,0.9,0.1,1.4,0.4s0.8,0.5,1.1,0.9c0.2,0.3,0.3,0.6,0.4,1c0.1,0.3,0.1,0.6,0.1,1
		c0,0.9-0.2,1.7-0.6,2.5c-0.4,0.8-0.9,1.5-1.7,2.1s-1.8,1.1-2.9,1.3c0.2,1.2,0.6,1.9,1.4,2.2c0.3,0.1,0.6,0.2,0.9,0.2
		s0.7-0.1,1.1-0.3c0.4-0.2,0.8-0.4,1.2-0.8c0.3-0.2,0.6-0.4,0.9-0.4c0.4,0,0.7,0.1,1,0.4c0.3,0.3,0.4,0.6,0.4,1c0,0.2,0,0.4-0.1,0.6
		c-0.1,0.2-0.2,0.4-0.3,0.5c-0.9,0.8-1.9,1.4-3,1.6c-1.1,0.2-2.1,0.2-3.1-0.3c-1-0.4-1.7-1.2-2.3-2.2c-0.5-1.1-0.8-2.3-0.8-3.7
		c0-1.5,0.2-2.8,0.6-3.9c0.4-1.2,1-2.1,1.7-2.8c0.8-0.8,1.7-1.2,2.6-1.2C79.5,45.5,79.5,45.5,79.6,45.5z M79.6,48.2L79.6,48.2
		c-0.3,0-0.6,0.1-0.9,0.4c-0.7,0.7-1.2,1.8-1.4,3.3c1-0.3,1.7-0.9,2.2-1.8c0.2-0.4,0.3-0.9,0.3-1.4c0-0.2,0-0.3,0-0.4
		C79.7,48.3,79.6,48.2,79.6,48.2z M79.7,48.3L79.7,48.3L79.7,48.3z"/>
	<path class="st2" d="M86.3,45.6C86.3,45.6,86.4,45.6,86.3,45.6c0.4,0,0.7,0.1,1,0.4c0.3,0.3,0.4,0.6,0.4,1c0,0.8,0,1.7,0,2.6
		c0.3-0.6,0.6-1.1,0.9-1.6c0.4-0.6,0.8-1.1,1.2-1.4c0.4-0.3,0.9-0.5,1.4-0.6c0.1,0,0.2,0,0.2,0c0.6,0,1.1,0.2,1.5,0.6
		c0.4,0.4,0.6,0.8,0.8,1.5c0,0.1,0.1,0.3,0.1,0.4c0,0.4-0.1,0.7-0.4,1c-0.3,0.3-0.6,0.4-1,0.4c-0.2,0-0.5-0.1-0.7-0.2
		c-0.2-0.2-0.4-0.4-0.5-0.6c-0.2,0.2-0.3,0.3-0.4,0.5c-0.6,0.8-1.1,2-1.7,3.7c-0.6,1.6-1.1,3.5-1.6,5.7c-0.1,0.3-0.2,0.6-0.5,0.8
		c-0.3,0.2-0.5,0.3-0.9,0.3c-0.4,0-0.7-0.1-0.9-0.4c-0.3-0.3-0.4-0.6-0.4-0.9c0-0.1,0-0.1,0-0.2c-0.1-1,0-2.7,0.1-5.3
		C85,50.7,85,48.6,85,47v0c0-0.4,0.1-0.7,0.4-0.9C85.6,45.7,86,45.6,86.3,45.6z"/>
</g>
</svg>
